# xmcd
#
# Track frame offsets: 
#        200
#        13680
#        25075
#        37452
#        50730
#        62827
#        75932
#        88190
#        100785
#        115147
#        125627
#        137165
#        150642
#
# Disc length: 2172 seconds
#
# Revision: 3
# Processed by: cddbd v1.5.2PL0 Copyright (c) Steve Scherf et al.
# Submitted via: ExactAudioCopy v1.0b1
#
DISCID=ad087a0d
DTITLE=Don Gardner and Dee Dee Ford - Need Your Lovin'
DYEAR=1993
DGENRE=R&B
TTITLE0=I Need Your Lovin'
TTITLE1=Now It's Too Late
TTITLE2=Nobody But You
TTITLE3=Make The Girl Love Me
TTITLE4=You Said
TTITLE5=Tell Me
TTITLE6=T.C.B. (Takin' Care Of Business)
TTITLE7=I Need You
TTITLE8=I'm Coming Home To Stay
TTITLE9=What A Thrill
TTITLE10=Honey Sweet
TTITLE11=Don't You Worry
TTITLE12=Lead Me On
EXTD=
EXTT0=
EXTT1=
EXTT2=
EXTT3=
EXTT4=
EXTT5=
EXTT6=
EXTT7=
EXTT8=
EXTT9=
EXTT10=
EXTT11=
EXTT12=
PLAYORDER=
